<svg width="121" height="55" viewBox="0 0 121 55" fill="none" xmlns="http://www.w3.org/2000/svg">
<path d="M23.3693 0.715464V53.0791H12.2983V11.224H11.9915L0 18.741V8.92285L12.9631 0.715464H23.3693ZM56.3459 54.2297C51.9482 54.2126 48.1641 53.1302 44.9936 50.9825C41.8402 48.8348 39.4112 45.724 37.7067 41.6501C36.0192 37.5763 35.1839 32.6757 35.201 26.9484C35.201 21.2382 36.0447 16.3717 37.7322 12.349C39.4368 8.32626 41.8658 5.2666 45.0192 3.17001C48.1896 1.05637 51.9652 -0.000445843 56.3459 -0.000445843C60.7266 -0.000445843 64.4936 1.05637 67.647 3.17001C70.8175 5.28365 73.255 8.35183 74.9595 12.3746C76.6641 16.3802 77.5078 21.2382 77.4908 26.9484C77.4908 32.6927 76.6385 37.6018 74.934 41.6757C73.2465 45.7496 70.826 48.8604 67.6726 51.0081C64.5192 53.1558 60.7436 54.2297 56.3459 54.2297ZM56.3459 45.0507C59.3459 45.0507 61.7408 43.5422 63.5305 40.5251C65.3203 37.5081 66.2067 32.9825 66.1896 26.9484C66.1896 22.9768 65.7805 19.67 64.9624 17.028C64.1612 14.3859 63.0192 12.4001 61.5362 11.0706C60.0703 9.74103 58.3402 9.07626 56.3459 9.07626C53.3629 9.07626 50.9766 10.5677 49.1868 13.5507C47.397 16.5336 46.4936 20.9996 46.4766 26.9484C46.4766 30.9711 46.8771 34.3291 47.6783 37.0223C48.4964 39.6984 49.647 41.7098 51.13 43.0564C52.6129 44.3859 54.3516 45.0507 56.3459 45.0507ZM94.5895 13.8064L101.8 27.5365L109.189 13.8064H120.362L108.984 33.4427L120.669 53.0791H109.547L101.8 39.5024L94.1804 53.0791H82.9304L94.5895 33.4427L83.3395 13.8064H94.5895Z" fill="url(#paint0_linear_625_1458)" fill-opacity="0.6"/>
<defs>
<linearGradient id="paint0_linear_625_1458" x1="59.8438" y1="1.0791" x2="59.8438" y2="53.0791" gradientUnits="userSpaceOnUse">
<stop stop-color="#032E15"/>
<stop offset="1" stop-color="#016630"/>
</linearGradient>
</defs>
</svg>
