<svg width="181" height="55" viewBox="0 0 181 55" fill="none" xmlns="http://www.w3.org/2000/svg">
<path d="M0.509943 53.0791V45.1018L19.1491 27.8433C20.7344 26.3092 22.0639 24.9285 23.1378 23.7013C24.2287 22.474 25.0554 21.2723 25.6179 20.0961C26.1804 18.903 26.4616 17.616 26.4616 16.2354C26.4616 14.7013 26.1122 13.3802 25.4134 12.2723C24.7145 11.1473 23.7599 10.2865 22.5497 9.68989C21.3395 9.07626 19.9673 8.76944 18.4332 8.76944C16.831 8.76944 15.4332 9.09331 14.2401 9.74103C13.0469 10.3888 12.1264 11.3177 11.4787 12.528C10.831 13.7382 10.5071 15.1785 10.5071 16.849H-0.00142026C-0.00142026 13.4229 0.774148 10.4484 2.32528 7.92569C3.87642 5.40297 6.04972 3.45126 8.84517 2.07058C11.6406 0.689895 14.8622 -0.000445843 18.5099 -0.000445843C22.2599 -0.000445843 25.5241 0.664327 28.3026 1.99387C31.098 3.30637 33.2713 5.13024 34.8224 7.46546C36.3736 9.80069 37.1492 12.4768 37.1492 15.4939C37.1492 17.4711 36.7571 19.4229 35.973 21.349C35.206 23.2751 33.8338 25.4143 31.8565 27.7666C29.8793 30.1018 27.0923 32.9058 23.4957 36.1785L15.8509 43.67V44.028H37.8395V53.0791H0.509943ZM66.3928 54.2297C61.995 54.2126 58.2109 53.1302 55.0405 50.9825C51.8871 48.8348 49.4581 45.724 47.7536 41.6501C46.0661 37.5763 45.2308 32.6757 45.2479 26.9484C45.2479 21.2382 46.0916 16.3717 47.7791 12.349C49.4837 8.32626 51.9126 5.2666 55.0661 3.17001C58.2365 1.05637 62.0121 -0.000445843 66.3928 -0.000445843C70.7734 -0.000445843 74.5405 1.05637 77.6939 3.17001C80.8643 5.28365 83.3018 8.35183 85.0064 12.3746C86.7109 16.3802 87.5547 21.2382 87.5376 26.9484C87.5376 32.6927 86.6854 37.6018 84.9808 41.6757C83.2933 45.7496 80.8729 48.8604 77.7195 51.0081C74.5661 53.1558 70.7905 54.2297 66.3928 54.2297ZM66.3928 45.0507C69.3928 45.0507 71.7876 43.5422 73.5774 40.5251C75.3672 37.5081 76.2536 32.9825 76.2365 26.9484C76.2365 22.9768 75.8274 19.67 75.0092 17.028C74.2081 14.3859 73.0661 12.4001 71.5831 11.0706C70.1172 9.74103 68.3871 9.07626 66.3928 9.07626C63.4098 9.07626 61.0234 10.5677 59.2337 13.5507C57.4439 16.5336 56.5405 20.9996 56.5234 26.9484C56.5234 30.9711 56.924 34.3291 57.7251 37.0223C58.5433 39.6984 59.6939 41.7098 61.1768 43.0564C62.6598 44.3859 64.3984 45.0507 66.3928 45.0507ZM95.7386 53.0791V0.715464H106.81V23.8035H107.5L126.344 0.715464H139.614L120.182 24.1615L139.844 53.0791H126.599L112.256 31.5507L106.81 38.1984V53.0791H95.7386ZM157.556 45.1018V8.89728H166.71V45.1018H157.556ZM144.031 31.5763V22.4229H180.235V31.5763H144.031Z" fill="url(#paint0_linear_17025_33)" fill-opacity="0.6"/>
<defs>
<linearGradient id="paint0_linear_17025_33" x1="91.7656" y1="1.0791" x2="91.7656" y2="53.0791" gradientUnits="userSpaceOnUse">
<stop stop-color="#032E15"/>
<stop offset="1" stop-color="#016630"/>
</linearGradient>
</defs>
</svg>
