<svg width="41" height="54" viewBox="0 0 41 54" fill="none" xmlns="http://www.w3.org/2000/svg">
<path d="M19.5849 0.0259213C22.2781 0.0259213 24.869 0.477625 27.3576 1.38103C29.8633 2.28444 32.0962 3.72479 34.0565 5.70206C36.0337 7.67933 37.5934 10.3043 38.7354 13.5771C39.8945 16.8327 40.4826 20.8299 40.4996 25.5685C40.4996 30.0174 39.9968 33.989 38.9911 37.4833C38.0025 40.9606 36.5792 43.918 34.7212 46.3555C32.8633 48.793 30.6218 50.6509 27.9968 51.9293C25.3718 53.1907 22.44 53.8214 19.2014 53.8214C15.707 53.8214 12.6218 53.1481 9.94567 51.8015C7.26953 50.4379 5.11328 48.5884 3.47692 46.2532C1.8576 43.9009 0.877486 41.2589 0.536577 38.3271H11.4542C11.8803 40.2362 12.7752 41.7191 14.1389 42.7759C15.5025 43.8157 17.19 44.3356 19.2014 44.3356C22.6104 44.3356 25.2014 42.8526 26.9741 39.8867C28.7468 36.9038 29.6417 32.8214 29.6587 27.6396H29.3008C28.5167 29.1736 27.4599 30.4947 26.1303 31.6026C24.8008 32.6935 23.2752 33.5373 21.5536 34.1339C19.8491 34.7305 18.0337 35.0288 16.1076 35.0288C13.0224 35.0288 10.2695 34.3043 7.84908 32.8555C5.42862 31.4066 3.51953 29.4123 2.1218 26.8725C0.724077 24.3327 0.0252131 21.435 0.0252131 18.1793C0.00816765 14.668 0.817827 11.5401 2.45419 8.79581C4.09055 6.05149 6.37465 3.90376 9.30646 2.35263C12.2553 0.784444 15.6815 0.00887537 19.5849 0.0259213ZM19.6616 8.7191C17.94 8.7191 16.4059 9.12819 15.0593 9.94638C13.7298 10.7646 12.6729 11.864 11.8889 13.2447C11.1218 14.6254 10.7468 16.168 10.7639 17.8725C10.7639 19.5941 11.1389 21.1452 11.8889 22.5259C12.6559 23.8896 13.6957 24.9805 15.0082 25.7986C16.3377 26.5998 17.8548 27.0004 19.5593 27.0004C20.8377 27.0004 22.0224 26.7617 23.1133 26.2844C24.2042 25.8072 25.1502 25.1509 25.9514 24.3157C26.7695 23.4634 27.4087 22.4833 27.869 21.3754C28.3292 20.2674 28.5593 19.0913 28.5593 17.8469C28.5423 16.1935 28.1502 14.6765 27.3832 13.2958C26.6161 11.9151 25.5593 10.8072 24.2127 9.97194C22.8661 9.13672 21.3491 8.7191 19.6616 8.7191Z" fill="url(#paint0_linear_625_1461)" fill-opacity="0.6"/>
<defs>
<linearGradient id="paint0_linear_625_1461" x1="23.3945" y1="2.10547" x2="23.3945" y2="52.1055" gradientUnits="userSpaceOnUse">
<stop stop-color="#032E15"/>
<stop offset="1" stop-color="#016630"/>
</linearGradient>
</defs>
</svg>
