<svg width="184" height="92" viewBox="0 0 184 92" fill="none" xmlns="http://www.w3.org/2000/svg">
<path d="M27.0256 0.715464V53.0791H15.9545V11.224H15.6477L3.65625 18.741V8.92285L16.6193 0.715464H27.0256ZM60.0021 54.2297C55.6044 54.2126 51.8203 53.1302 48.6499 50.9825C45.4964 48.8348 43.0675 45.724 41.3629 41.6501C39.6754 37.5763 38.8402 32.6757 38.8572 26.9484C38.8572 21.2382 39.701 16.3717 41.3885 12.349C43.093 8.32626 45.522 5.2666 48.6754 3.17001C51.8459 1.05637 55.6214 -0.000445843 60.0021 -0.000445843C64.3828 -0.000445843 68.1499 1.05637 71.3033 3.17001C74.4737 5.28365 76.9112 8.35183 78.6158 12.3746C80.3203 16.3802 81.1641 21.2382 81.147 26.9484C81.147 32.6927 80.2947 37.6018 78.5902 41.6757C76.9027 45.7496 74.4822 48.8604 71.3288 51.0081C68.1754 53.1558 64.3999 54.2297 60.0021 54.2297ZM60.0021 45.0507C63.0021 45.0507 65.397 43.5422 67.1868 40.5251C68.9766 37.5081 69.8629 32.9825 69.8459 26.9484C69.8459 22.9768 69.4368 19.67 68.6186 17.028C67.8175 14.3859 66.6754 12.4001 65.1925 11.0706C63.7266 9.74103 61.9964 9.07626 60.0021 9.07626C57.0192 9.07626 54.6328 10.5677 52.843 13.5507C51.0533 16.5336 50.1499 20.9996 50.1328 26.9484C50.1328 30.9711 50.5334 34.3291 51.3345 37.0223C52.1527 39.6984 53.3033 41.7098 54.7862 43.0564C56.2692 44.3859 58.0078 45.0507 60.0021 45.0507ZM98.2457 13.8064L105.456 27.5365L112.845 13.8064H124.018L112.641 33.4427L124.325 53.0791H113.203L105.456 39.5024L97.8366 53.0791H86.5866L98.2457 33.4427L86.9957 13.8064H98.2457Z" fill="url(#paint0_linear_625_1457)" fill-opacity="0.6"/>
<path d="M1.83594 91.5791V75.0791H3.1875V77.3682H3.35156C3.51823 77.0088 3.7474 76.6416 4.03906 76.2666C4.33073 75.8864 4.71615 75.5661 5.19531 75.3057C5.67969 75.0452 6.28906 74.915 7.02344 74.915C8.01302 74.915 8.8776 75.1755 9.61719 75.6963C10.362 76.2119 10.9401 76.9359 11.3516 77.8682C11.7682 78.7952 11.9766 79.876 11.9766 81.1104C11.9766 82.3499 11.7682 83.4359 11.3516 84.3682C10.9401 85.3005 10.362 86.027 9.61719 86.5479C8.8776 87.0687 8.01823 87.3291 7.03906 87.3291C6.3151 87.3291 5.70833 87.1989 5.21875 86.9385C4.73438 86.6781 4.34115 86.3577 4.03906 85.9775C3.74219 85.5921 3.51302 85.2171 3.35156 84.8525H3.22656V91.5791H1.83594ZM3.21094 81.0869C3.21094 82.0557 3.35417 82.915 3.64062 83.665C3.93229 84.4098 4.34896 84.9958 4.89063 85.4229C5.4375 85.8447 6.09896 86.0557 6.875 86.0557C7.67188 86.0557 8.34375 85.8369 8.89063 85.3994C9.44271 84.9567 9.86198 84.3604 10.1484 83.6104C10.4401 82.8604 10.5859 82.0192 10.5859 81.0869C10.5859 80.165 10.4427 79.3343 10.1563 78.5947C9.875 77.8551 9.45833 77.2692 8.90625 76.8369C8.35417 76.3994 7.67708 76.1807 6.875 76.1807C6.09375 76.1807 5.42969 76.3916 4.88281 76.8135C4.33594 77.2301 3.91927 77.8083 3.63281 78.5479C3.35156 79.2822 3.21094 80.1286 3.21094 81.0869ZM19.6914 87.3291C18.6549 87.3291 17.7383 87.0661 16.9414 86.54C16.1497 86.014 15.5299 85.2874 15.082 84.3604C14.6341 83.4281 14.4102 82.3525 14.4102 81.1338C14.4102 79.9046 14.6341 78.8239 15.082 77.8916C15.5299 76.9541 16.1497 76.2249 16.9414 75.7041C17.7383 75.1781 18.6549 74.915 19.6914 74.915C20.7279 74.915 21.6419 75.1781 22.4336 75.7041C23.2253 76.2301 23.8451 76.9593 24.293 77.8916C24.7461 78.8239 24.9727 79.9046 24.9727 81.1338C24.9727 82.3525 24.7487 83.4281 24.3008 84.3604C23.8529 85.2874 23.2305 86.014 22.4336 86.54C21.6419 87.0661 20.7279 87.3291 19.6914 87.3291ZM19.6914 86.0557C20.5247 86.0557 21.2305 85.8317 21.8086 85.3838C22.3867 84.9359 22.8242 84.3395 23.1211 83.5947C23.4232 82.8499 23.5742 82.0296 23.5742 81.1338C23.5742 80.238 23.4232 79.415 23.1211 78.665C22.8242 77.915 22.3867 77.3135 21.8086 76.8604C21.2305 76.4072 20.5247 76.1807 19.6914 76.1807C18.8633 76.1807 18.1576 76.4072 17.5742 76.8604C16.9961 77.3135 16.556 77.915 16.2539 78.665C15.957 79.415 15.8086 80.238 15.8086 81.1338C15.8086 82.0296 15.957 82.8499 16.2539 83.5947C16.556 84.3395 16.9961 84.9359 17.5742 85.3838C18.1523 85.8317 18.8581 86.0557 19.6914 86.0557ZM30.2813 87.0791L26.6562 75.0791H28.125L30.9688 84.9775H31.0703L33.9063 75.0791H35.3828L38.1953 84.9541H38.3047L41.1484 75.0791H42.6172L38.9922 87.0791H37.5547L34.7109 77.2432H34.5625L31.7188 87.0791H30.2813ZM49.7637 87.3291C48.6439 87.3291 47.6751 87.0687 46.8574 86.5479C46.0397 86.0218 45.4069 85.2952 44.959 84.3682C44.5163 83.4359 44.2949 82.363 44.2949 81.1494C44.2949 79.9411 44.5163 78.8682 44.959 77.9307C45.4069 76.988 46.0241 76.251 46.8105 75.7197C47.6022 75.1833 48.5163 74.915 49.5527 74.915C50.2038 74.915 50.8314 75.0348 51.4355 75.2744C52.0397 75.5088 52.5814 75.8708 53.0605 76.3604C53.5449 76.8447 53.9277 77.4567 54.209 78.1963C54.4902 78.9307 54.6309 79.8005 54.6309 80.8057V81.4932H45.2559V80.2666H53.209C53.209 79.4958 53.0527 78.8031 52.7402 78.1885C52.4329 77.5687 52.0033 77.0791 51.4512 76.7197C50.9043 76.3604 50.2715 76.1807 49.5527 76.1807C48.7923 76.1807 48.123 76.3838 47.5449 76.79C46.9668 77.1963 46.5137 77.7327 46.1855 78.3994C45.8626 79.0661 45.6986 79.7952 45.6934 80.5869V81.3213C45.6934 82.2744 45.8574 83.1077 46.1855 83.8213C46.5189 84.5296 46.9902 85.0791 47.5996 85.4697C48.209 85.8604 48.9303 86.0557 49.7637 86.0557C50.3314 86.0557 50.8288 85.9671 51.2559 85.79C51.6882 85.613 52.0501 85.376 52.3418 85.0791C52.6387 84.777 52.8626 84.4463 53.0137 84.0869L54.334 84.5166C54.1517 85.0218 53.8522 85.488 53.4355 85.915C53.0241 86.3421 52.5085 86.6859 51.8887 86.9463C51.2741 87.2015 50.5658 87.3291 49.7637 87.3291ZM57.6953 87.0791V75.0791H59.0469V76.9229H59.1484C59.388 76.3187 59.8047 75.8317 60.3984 75.4619C60.9974 75.0869 61.6745 74.8994 62.4297 74.8994C62.5443 74.8994 62.6719 74.902 62.8125 74.9072C62.9531 74.9124 63.0703 74.9176 63.1641 74.9229V76.3369C63.1016 76.3265 62.9922 76.3109 62.8359 76.29C62.6797 76.2692 62.5104 76.2588 62.3281 76.2588C61.7031 76.2588 61.1458 76.3916 60.6563 76.6572C60.1719 76.9176 59.7891 77.2796 59.5078 77.7432C59.2266 78.2067 59.0859 78.7354 59.0859 79.3291V87.0791H57.6953Z" fill="#0D542B"/>
<defs>
<linearGradient id="paint0_linear_625_1457" x1="63.5" y1="1.0791" x2="63.5" y2="53.0791" gradientUnits="userSpaceOnUse">
<stop stop-color="#032E15"/>
<stop offset="1" stop-color="#016630"/>
</linearGradient>
</defs>
</svg>
